# xmcd
#
# Track frame offsets:
#	150
#	8475
#	15548
#	24376
#	30706
#	35746
#	40779
#	46569
#	51557
#	55292
#	60610
#	65763
#	71141
#	77494
#	83194
#	89412
#	94902
#	103625
#	108845
#	114080
#	119893
#	125278
#	130153
#	135936
#	144486
#	148139
#	153734
#	159269
#
# Disc length: 2195 seconds
#
# Revision: 0
# Processed by: cddbd v1.5.2PL0 Copyright (c) Steve Scherf et al.
# Submitted via: audiograbber 1.83.01
#
DISCID=7b08911c
DTITLE=Dewayne Wear - Hoe Down! Vol 4
DYEAR=1900
DGENRE=Country
TTITLE0=Under The Double Eagle
TTITLE1=Hand Me Down My Walking Cane
TTITLE2=Show Deer
TTITLE3=Year Of Jublo
TTITLE4=Texas Rag
TTITLE5=Durangs Hornpipe
TTITLE6=Wilsons Clog
TTITLE7=Soap Suds Over The Fence
TTITLE8=Little Girl Dressed In Blue
TTITLE9=Beaumont Rag
TTITLE10=The Irish Jig
TTITLE11=Rickets Hornpipe
TTITLE12=My Little Girl
TTITLE13=Run Boy Run
TTITLE14=I Ain't Loving Nobody
TTITLE15=Sailors Hornpipe
TTITLE16=Shamus O'Brion
TTITLE17=Skip To My Lou
TTITLE18=Little Liza Jane
TTITLE19=Red Bird Waltz
TTITLE20=Cotton Eyed Joe
TTITLE21=Irish Wash Woman
TTITLE22=Green Corn
TTITLE23=Climbing Up The Golden Stalks
TTITLE24=Jordan Road
TTITLE25=Walk Along John
TTITLE26=Sweet Betsy From Pike
TTITLE27=Sally Ann
EXTD=This CD was created from one of my LP's
EXTT0=
EXTT1=
EXTT2=
EXTT3=
EXTT4=
EXTT5=
EXTT6=
EXTT7=
EXTT8=
EXTT9=
EXTT10=
EXTT11=
EXTT12=
EXTT13=
EXTT14=
EXTT15=
EXTT16=
EXTT17=
EXTT18=
EXTT19=
EXTT20=
EXTT21=
EXTT22=
EXTT23=
EXTT24=
EXTT25=
EXTT26=
EXTT27=
PLAYORDER=
